<mxfile host="app.diagrams.net" agent="Mozilla/5.0 (Windows NT 10.0; Win64; x64) AppleWebKit/537.36 (KHTML, like Gecko) Chrome/140.0.0.0 Safari/537.36" version="28.2.3">
  <diagram name="Page-1" id="1j3LRx9Mu5Mt7V8nl9sj">
    <mxGraphModel dx="992" dy="627" grid="1" gridSize="10" guides="1" tooltips="1" connect="1" arrows="1" fold="1" page="1" pageScale="1" pageWidth="850" pageHeight="1100" math="0" shadow="0">
      <root>
        <mxCell id="0" />
        <mxCell id="1" parent="0" />
        <mxCell id="losqFbTlRTj044WKs-lp-1" value="Plan" style="ellipse;whiteSpace=wrap;html=1;" parent="1" vertex="1">
          <mxGeometry x="360" width="120" height="60" as="geometry" />
        </mxCell>
        <mxCell id="losqFbTlRTj044WKs-lp-7" value="Develop" style="ellipse;whiteSpace=wrap;html=1;" parent="1" vertex="1">
          <mxGeometry x="360" y="90" width="120" height="60" as="geometry" />
        </mxCell>
        <mxCell id="losqFbTlRTj044WKs-lp-8" value="Build" style="ellipse;whiteSpace=wrap;html=1;" parent="1" vertex="1">
          <mxGeometry x="360" y="180" width="120" height="60" as="geometry" />
        </mxCell>
        <mxCell id="losqFbTlRTj044WKs-lp-10" value="Release" style="ellipse;whiteSpace=wrap;html=1;" parent="1" vertex="1">
          <mxGeometry x="360" y="400" width="120" height="60" as="geometry" />
        </mxCell>
        <mxCell id="losqFbTlRTj044WKs-lp-11" value="Deploy" style="ellipse;whiteSpace=wrap;html=1;" parent="1" vertex="1">
          <mxGeometry x="365" y="500" width="120" height="60" as="geometry" />
        </mxCell>
        <mxCell id="losqFbTlRTj044WKs-lp-13" style="edgeStyle=orthogonalEdgeStyle;rounded=0;orthogonalLoop=1;jettySize=auto;html=1;exitX=0.5;exitY=1;exitDx=0;exitDy=0;" parent="1" source="losqFbTlRTj044WKs-lp-10" target="losqFbTlRTj044WKs-lp-10" edge="1">
          <mxGeometry relative="1" as="geometry" />
        </mxCell>
        <mxCell id="losqFbTlRTj044WKs-lp-14" value="Operate" style="ellipse;whiteSpace=wrap;html=1;" parent="1" vertex="1">
          <mxGeometry x="365" y="610" width="120" height="60" as="geometry" />
        </mxCell>
        <mxCell id="losqFbTlRTj044WKs-lp-15" value="Monitor" style="ellipse;whiteSpace=wrap;html=1;" parent="1" vertex="1">
          <mxGeometry x="365" y="720" width="120" height="60" as="geometry" />
        </mxCell>
        <mxCell id="us8Se04hN1U9ZXc10-6Y-13" value="" style="endArrow=classic;html=1;rounded=0;" edge="1" parent="1" target="losqFbTlRTj044WKs-lp-9">
          <mxGeometry width="50" height="50" relative="1" as="geometry">
            <mxPoint x="420" y="340" as="sourcePoint" />
            <mxPoint x="470" y="290" as="targetPoint" />
            <Array as="points" />
          </mxGeometry>
        </mxCell>
        <mxCell id="losqFbTlRTj044WKs-lp-9" value="Test" style="ellipse;whiteSpace=wrap;html=1;" parent="1" vertex="1">
          <mxGeometry x="360" y="290" width="120" height="60" as="geometry" />
        </mxCell>
        <mxCell id="us8Se04hN1U9ZXc10-6Y-14" value="" style="line;strokeWidth=2;direction=south;html=1;" vertex="1" parent="1">
          <mxGeometry x="410" y="60" width="10" height="30" as="geometry" />
        </mxCell>
        <mxCell id="us8Se04hN1U9ZXc10-6Y-16" value="" style="line;strokeWidth=2;direction=south;html=1;" vertex="1" parent="1">
          <mxGeometry x="410" y="150" width="10" height="30" as="geometry" />
        </mxCell>
        <mxCell id="us8Se04hN1U9ZXc10-6Y-17" value="" style="line;strokeWidth=2;direction=south;html=1;" vertex="1" parent="1">
          <mxGeometry x="415" y="240" width="10" height="50" as="geometry" />
        </mxCell>
        <mxCell id="us8Se04hN1U9ZXc10-6Y-18" value="" style="line;strokeWidth=2;direction=south;html=1;" vertex="1" parent="1">
          <mxGeometry x="415" y="350" width="10" height="50" as="geometry" />
        </mxCell>
        <mxCell id="us8Se04hN1U9ZXc10-6Y-19" value="" style="line;strokeWidth=2;direction=south;html=1;" vertex="1" parent="1">
          <mxGeometry x="415" y="460" width="10" height="40" as="geometry" />
        </mxCell>
        <mxCell id="us8Se04hN1U9ZXc10-6Y-20" value="" style="line;strokeWidth=2;direction=south;html=1;" vertex="1" parent="1">
          <mxGeometry x="415" y="560" width="10" height="50" as="geometry" />
        </mxCell>
        <mxCell id="us8Se04hN1U9ZXc10-6Y-21" value="" style="line;strokeWidth=2;direction=south;html=1;" vertex="1" parent="1">
          <mxGeometry x="415" y="670" width="10" height="50" as="geometry" />
        </mxCell>
      </root>
    </mxGraphModel>
  </diagram>
</mxfile>
